REM DIRINDEX 1\2\6,1\2\7,1\2\8,1\3\9,1\3\10,1\3\11,1\4\12,1\4\13,1\4\14,1\5\15,1\5\16,1\5\17,1\5\18
REM DIRNAME folder01,folder02,folder03,folder04,folder05,folder06,folder07,folder08,folder09,folder10,folder11,folder12,folder13,folder14,folder15,folder16,folder17,folder18
TITLE ""
FILE "" MP3
  TRACK 01 AUDIO
    TITLE "16:cjc019_7491"
    INDEX 01 00:00:00
  TRACK 02 AUDIO
    TITLE "0:"
    INDEX 01 00:00:66
  TRACK 03 AUDIO
    TITLE "18:cjc019_7492"
    INDEX 01 00:01:48
  TRACK 04 AUDIO
    TITLE "0:"
    INDEX 01 00:04:74
  TRACK 05 AUDIO
    TITLE "17:cjc019_7493"
    INDEX 01 00:05:52
  TRACK 06 AUDIO
    TITLE "0:"
    INDEX 01 00:06:53
  TRACK 07 AUDIO
    TITLE "16:cjc019_7494"
    INDEX 01 00:08:32
  TRACK 08 AUDIO
    TITLE "0:"
    INDEX 01 00:09:57
  TRACK 09 AUDIO
    TITLE "18:cjc019_7495"
    INDEX 01 00:10:37
  TRACK 10 AUDIO
    TITLE "0:"
    INDEX 01 00:13:53
  TRACK 11 AUDIO
    TITLE "17:cjc019_7496"
    INDEX 01 00:14:29
  TRACK 12 AUDIO
    TITLE "0:"
    INDEX 01 00:15:60
  TRACK 13 AUDIO
    TITLE "16:cjc019_7497"
    INDEX 01 00:17:31
  TRACK 14 AUDIO
    TITLE "0:"
    INDEX 01 00:18:42
  TRACK 15 AUDIO
    TITLE "18:cjc019_7498"
    INDEX 01 00:19:22
  TRACK 16 AUDIO
    TITLE "0:"
    INDEX 01 00:21:51
  TRACK 17 AUDIO
    TITLE "17:cjc019_7499"
    INDEX 01 00:22:29
  TRACK 18 AUDIO
    TITLE "0:"
    INDEX 01 00:23:42
  TRACK 19 AUDIO
    TITLE "16:cjc019_7500"
    INDEX 01 00:25:27
  TRACK 20 AUDIO
    TITLE "0:"
    INDEX 01 00:26:50
  TRACK 21 AUDIO
    TITLE "18:cjc019_7501"
    INDEX 01 00:27:32
  TRACK 22 AUDIO
    TITLE "0:"
    INDEX 01 00:30:24
  TRACK 23 AUDIO
    TITLE "17:cjc019_7502"
    INDEX 01 00:30:69
  TRACK 24 AUDIO
    TITLE "0:"
    INDEX 01 00:32:23
  TRACK 25 AUDIO
    TITLE "16:cjc019_7503"
    INDEX 01 00:33:73
  TRACK 26 AUDIO
    TITLE "0:"
    INDEX 01 00:35:17
  TRACK 27 AUDIO
    TITLE "18:cjc019_7504"
    INDEX 01 00:35:72
  TRACK 28 AUDIO
    TITLE "0:"
    INDEX 01 00:37:12
  TRACK 29 AUDIO
    TITLE "17:cjc019_7505"
    INDEX 01 00:37:67
  TRACK 30 AUDIO
    TITLE "0:"
    INDEX 01 00:39:15
  TRACK 31 AUDIO
    TITLE "16:cjc019_7506"
    INDEX 01 00:40:70
  TRACK 32 AUDIO
    TITLE "0:"
    INDEX 01 00:42:00
  TRACK 33 AUDIO
    TITLE "18:cjc019_7507"
    INDEX 01 00:42:61
  TRACK 34 AUDIO
    TITLE "0:"
    INDEX 01 00:45:30
  TRACK 35 AUDIO
    TITLE "17:cjc019_7508"
    INDEX 01 00:46:07
  TRACK 36 AUDIO
    TITLE "0:"
    INDEX 01 00:47:15
  TRACK 37 AUDIO
    TITLE "16:cjc019_7509"
    INDEX 01 00:49:06
  TRACK 38 AUDIO
    TITLE "0:"
    INDEX 01 00:50:54
  TRACK 39 AUDIO
    TITLE "18:cjc019_7510"
    INDEX 01 00:51:44
  TRACK 40 AUDIO
    TITLE "0:"
    INDEX 01 00:53:58
  TRACK 41 AUDIO
    TITLE "17:cjc019_7511"
    INDEX 01 00:54:34
  TRACK 42 AUDIO
    TITLE "0:"
    INDEX 01 00:56:12
  TRACK 43 AUDIO
    TITLE "16:cjc019_7512"
    INDEX 01 00:57:64
  TRACK 44 AUDIO
    TITLE "0:"
    INDEX 01 00:59:18
  TRACK 45 AUDIO
    TITLE "18:cjc019_7513"
    INDEX 01 01:00:06
  TRACK 46 AUDIO
    TITLE "0:"
    INDEX 01 01:02:50
  TRACK 47 AUDIO
    TITLE "17:cjc019_7514"
    INDEX 01 01:03:29
  TRACK 48 AUDIO
    TITLE "0:"
    INDEX 01 01:04:62
  TRACK 49 AUDIO
    TITLE "16:cjc019_7515"
    INDEX 01 01:06:47
  TRACK 50 AUDIO
    TITLE "0:"
    INDEX 01 01:07:51
  TRACK 51 AUDIO
    TITLE "18:cjc019_7516"
    INDEX 01 01:08:40
  TRACK 52 AUDIO
    TITLE "0:"
    INDEX 01 01:10:47
  TRACK 53 AUDIO
    TITLE "17:cjc019_7517"
    INDEX 01 01:11:25
  TRACK 54 AUDIO
    TITLE "0:"
    INDEX 01 01:12:36
  TRACK 55 AUDIO
    TITLE "16:cjc019_7518"
    INDEX 01 01:14:17
  TRACK 56 AUDIO
    TITLE "0:"
    INDEX 01 01:15:46
  TRACK 57 AUDIO
    TITLE "18:cjc019_7519"
    INDEX 01 01:16:18
  TRACK 58 AUDIO
    TITLE "0:"
    INDEX 01 01:19:17
  TRACK 59 AUDIO
    TITLE "17:cjc019_7520"
    INDEX 01 01:19:72
  TRACK 60 AUDIO
    TITLE "0:"
    INDEX 01 01:21:23
  TRACK 61 AUDIO
    TITLE "16:cjc019_7521"
    INDEX 01 01:23:03
  TRACK 62 AUDIO
    TITLE "0:"
    INDEX 01 01:24:51
  TRACK 63 AUDIO
    TITLE "18:cjc019_7522"
    INDEX 01 01:25:31
  TRACK 64 AUDIO
    TITLE "0:"
    INDEX 01 01:26:48
  TRACK 65 AUDIO
    TITLE "17:cjc019_7523"
    INDEX 01 01:27:22
  TRACK 66 AUDIO
    TITLE "0:"
    INDEX 01 01:28:72
  TRACK 67 AUDIO
    TITLE "16:cjc019_7524"
    INDEX 01 01:30:54
  TRACK 68 AUDIO
    TITLE "0:"
    INDEX 01 01:32:00
  TRACK 69 AUDIO
    TITLE "18:cjc019_7525"
    INDEX 01 01:32:55
  TRACK 70 AUDIO
    TITLE "0:"
    INDEX 01 01:35:41
  TRACK 71 AUDIO
    TITLE "17:cjc019_7526"
    INDEX 01 01:36:25
  TRACK 72 AUDIO
    TITLE "0:"
    INDEX 01 01:37:50
  TRACK 73 AUDIO
    TITLE "16:cjc019_7527"
    INDEX 01 01:39:31
  TRACK 74 AUDIO
    TITLE "0:"
    INDEX 01 01:40:48
  TRACK 75 AUDIO
    TITLE "18:cjc019_7528"
    INDEX 01 01:41:38
  TRACK 76 AUDIO
    TITLE "0:"
    INDEX 01 01:43:39
  TRACK 77 AUDIO
    TITLE "17:cjc019_7529"
    INDEX 01 01:44:15
  TRACK 78 AUDIO
    TITLE "0:"
    INDEX 01 01:45:30
  TRACK 79 AUDIO
    TITLE "16:cjc019_7530"
    INDEX 01 01:47:19
  TRACK 80 AUDIO
    TITLE "0:"
    INDEX 01 01:48:30
  TRACK 81 AUDIO
    TITLE "18:cjc019_7531"
    INDEX 01 01:49:16
  TRACK 82 AUDIO
    TITLE "0:"
    INDEX 01 01:50:17
  TRACK 83 AUDIO
    TITLE "17:cjc019_7532"
    INDEX 01 01:51:01
  TRACK 84 AUDIO
    TITLE "0:"
    INDEX 01 01:52:14
  TRACK 85 AUDIO
    TITLE "16:cjc019_7533"
    INDEX 01 01:53:74
  TRACK 86 AUDIO
    TITLE "0:"
    INDEX 01 01:55:13
  TRACK 87 AUDIO
    TITLE "18:cjc019_7534"
    INDEX 01 01:55:63
  TRACK 88 AUDIO
    TITLE "0:"
    INDEX 01 01:58:03
  TRACK 89 AUDIO
    TITLE "17:cjc019_7535"
    INDEX 01 01:58:56
  TRACK 90 AUDIO
    TITLE "0:"
    INDEX 01 01:59:69
  TRACK 91 AUDIO
    TITLE "16:cjc019_7536"
    INDEX 01 02:01:46
  TRACK 92 AUDIO
    TITLE "0:"
    INDEX 01 02:02:54
  TRACK 93 AUDIO
    TITLE "18:cjc019_7537"
    INDEX 01 02:03:39
  TRACK 94 AUDIO
    TITLE "0:"
    INDEX 01 02:05:74
  TRACK 95 AUDIO
    TITLE "17:cjc019_7538"
    INDEX 01 02:06:52
  TRACK 96 AUDIO
    TITLE "0:"
    INDEX 01 02:07:57
  TRACK 97 AUDIO
    TITLE "16:cjc019_7539"
    INDEX 01 02:09:44
  TRACK 98 AUDIO
    TITLE "0:"
    INDEX 01 02:11:02
  TRACK 99 AUDIO
    TITLE "18:cjc019_7540"
    INDEX 01 02:11:59
  TRACK 100 AUDIO
    TITLE "0:"
    INDEX 01 02:13:03
  TRACK 101 AUDIO
    TITLE "17:cjc019_7541"
    INDEX 01 02:13:57
  TRACK 102 AUDIO
    TITLE "0:"
    INDEX 01 02:15:17
  TRACK 103 AUDIO
    TITLE "16:cjc019_7542"
    INDEX 01 02:17:04
  TRACK 104 AUDIO
    TITLE "0:"
    INDEX 01 02:18:27
  TRACK 105 AUDIO
    TITLE "18:cjc019_7543"
    INDEX 01 02:19:13
  TRACK 106 AUDIO
    TITLE "0:"
    INDEX 01 02:21:65
  TRACK 107 AUDIO
    TITLE "17:cjc019_7544"
    INDEX 01 02:22:51
  TRACK 108 AUDIO
    TITLE "0:"
    INDEX 01 02:24:06
